# xmcd CD database file
#
# Track frame offsets:
#	150
#	25318
#	55661
#	103348
#	119337
#	143879
#	172839
#	215096
#	231242
#	270231
#
# Disc length: 3901 seconds
#
# Revision: 0
# Processed by: cddbd v1.5.2PL0 Copyright (c) Steve Scherf et al.
# Submitted via: CDex 1.70beta2
#
DISCID=8b0f3b0a
DTITLE=Various Artist - The Atlantic Jazz Legends 50's-60's (Vol.1)
DYEAR=2004
DGENRE=Jazz
TTITLE0=Modern Jazz Quartet - DJango
TTITLE1=Art Blakey's Jazz Messengers With Thelonious Monk - Evidence
TTITLE2=Charles Mingus - Pithecanthropus Erectus
TTITLE3=Lennie Tristano - Line Up
TTITLE4=Lee Konitz With Warne Marsh - Topsy
TTITLE5=Teddy Charles - Nature Boy
TTITLE6=John Lewis - Afternoon In Paris
TTITLE7=Jimmy Giuffre Trion - The Train And The River
TTITLE8=Modern Jazz Quartet - Buag's Groove
TTITLE9=Ornette Coleman - Lonely Woman
EXTD=YEAR: 2004
EXTT0=
EXTT1=
EXTT2=
EXTT3=
EXTT4=
EXTT5=
EXTT6=
EXTT7=
EXTT8=
EXTT9=
PLAYORDER=
